<svg width="96" height="44" viewBox="0 0 96 44" fill="none" xmlns="http://www.w3.org/2000/svg">
<g clip-path="url(#clip0_2001_8)">
<path d="M6.36 11H20.84V13.88H7.56L6.32 15.2V22.6H15.6V25.52H6.32V33.8L7.88 36.12H20.84V39H6.32L3.12 34.2V14.32L6.36 11ZM33.6644 11H44.7844V39H41.5844V26.2H30.3844V39H27.1844V17.68L33.6644 11ZM30.3844 18.44V23.32H41.5844V13.88H34.8244L30.3844 18.44ZM54.3288 11H65.6088L67.7288 14.28L65.6888 16.28L64.0488 13.88H55.5288L54.3288 15.16V20.32L55.9288 22.64H65.9688L68.8088 26.88V36.08L66.0088 39H52.8888L51.1288 36.52L53.1288 34.4L54.3688 36.12H64.6488L65.6088 35.28V27.24L64.4088 25.52H54.3288L51.1288 20.76V14.32L54.3288 11ZM89.5531 11H92.7931V17.56L85.5131 25.08V39H82.3131V25.44L75.0731 14.68V11H78.2731V14.32L83.8331 22.6H83.9131L89.5531 16.72V11Z" fill="#74D2E8"/>
</g>
<defs>
<clipPath id="clip0_2001_8">
<rect width="96" height="44" fill="white"/>
</clipPath>
</defs>
</svg>
