<svg width="96" height="44" viewBox="0 0 96 44" fill="none" xmlns="http://www.w3.org/2000/svg">
<g clip-path="url(#clip0_2001_7)">
<path d="M3.12 11H6.32V24.48L9.48 22.6H14.4L17.64 24.48V11H20.88V39H17.64V27.72L16.12 25.52H7.52L6.32 26.72V39H3.12V11ZM33.6644 11H44.7844V39H41.5844V26.2H30.3844V39H27.1844V17.68L33.6644 11ZM30.3844 18.44V23.32H41.5844V13.88H34.8244L30.3844 18.44ZM51.0888 11H64.5288L68.8488 17.28V21.28L64.8888 25.32L68.8488 31.04V39H65.6088V31.4L61.5688 25.52H57.4488L54.2888 23.56V39H51.0888V11ZM54.2888 13.88V22.6H63.5688L65.6088 20.56V17.72L62.9688 13.88H54.2888ZM75.5131 11H87.8331L93.2331 19.04V35.68L90.0331 39H75.5131V11ZM78.7131 13.88V36.12H88.7131L89.9931 34.8V19.44L86.2731 13.88H78.7131Z" fill="#74D2E8"/>
</g>
<defs>
<clipPath id="clip0_2001_7">
<rect width="96" height="44" fill="white"/>
</clipPath>
</defs>
</svg>
