<svg width="176" height="80" viewBox="0 0 176 80" fill="none" xmlns="http://www.w3.org/2000/svg">
<g clip-path="url(#clip0_2002_48)">
<path d="M47.8584 58.5725H39.7699V44.5263L39.9496 33.1823H39.8565L33.3445 58.5725H25.9744L19.5488 33.1823H19.4158L19.5954 44.5263V58.5725H11.507V23.4453H24.4445L28.4489 40.1069L29.9321 47.0788H30.0186L31.502 40.1069L35.4996 23.4453H47.8584V58.5725Z" fill="white"/>
<path d="M74.006 23.4453H64.84V58.5725H74.006V23.4453Z" fill="white"/>
<path d="M119.109 31.591H109.678V58.5725H100.505V31.591H90.98V23.4453H119.109V31.591Z" fill="white"/>
<path d="M164.217 31.591H154.785V58.5725H145.612V31.591H136.094V23.4453H164.217V31.591Z" fill="white"/>
<path d="M167.215 10.045H133.092C128.495 10.045 124.771 14.4566 124.771 19.9002V68.6165H85.3262V16.5521C85.3262 11.1006 81.6013 6.68906 76.9984 6.68906H61.8391C57.2429 6.68906 53.5179 11.1006 53.5179 16.5521V68.6165H5.84528V42.1313H0.184692V65.4576C0.184692 70.9012 3.90964 75.3127 8.5126 75.3127H50.8506C55.4535 75.3127 59.1785 70.9012 59.1785 65.4576V13.3931H79.6656V65.4576C79.6656 70.9012 83.3906 75.3127 87.9935 75.3127H122.11C126.707 75.3127 130.437 70.9012 130.437 65.4576V16.749H169.883V31.5909H175.537V19.9002C175.537 14.4566 171.811 10.045 167.215 10.045Z" fill="#09A2DD"/>
</g>
<defs>
<clipPath id="clip0_2002_48">
<rect width="176" height="80" fill="white"/>
</clipPath>
</defs>
</svg>
