<svg width="347" height="80" viewBox="0 0 347 80" fill="none" xmlns="http://www.w3.org/2000/svg">
<g clip-path="url(#clip0_2002_48)">
<g clip-path="url(#clip1_2002_48)">
<path d="M47.8584 58.5725H39.7699V44.5263L39.9496 33.1823H39.8565L33.3445 58.5725H25.9744L19.5488 33.1823H19.4158L19.5954 44.5263V58.5725H11.507V23.4453H24.4445L28.4489 40.1069L29.9321 47.0788H30.0186L31.502 40.1069L35.4996 23.4453H47.8584V58.5725Z" fill="white"/>
<path d="M74.006 23.4453H64.84V58.5725H74.006V23.4453Z" fill="white"/>
<path d="M119.109 31.591H109.678V58.5725H100.505V31.591H90.98V23.4453H119.109V31.591Z" fill="white"/>
<path d="M164.217 31.591H154.785V58.5725H145.612V31.591H136.094V23.4453H164.217V31.591Z" fill="white"/>
<path d="M167.215 10.045H133.092C128.495 10.045 124.771 14.4566 124.771 19.9002V68.6165H85.3262V16.5521C85.3262 11.1006 81.6013 6.68906 76.9984 6.68906H61.8391C57.2429 6.68906 53.5179 11.1006 53.5179 16.5521V68.6165H5.84528V42.1313H0.184692V65.4576C0.184692 70.9012 3.90964 75.3127 8.5126 75.3127H50.8506C55.4535 75.3127 59.1785 70.9012 59.1785 65.4576V13.3931H79.6656V65.4576C79.6656 70.9012 83.3906 75.3127 87.9935 75.3127H122.11C126.707 75.3127 130.437 70.9012 130.437 65.4576V16.749H169.883V31.5909H175.537V19.9002C175.537 14.4566 171.811 10.045 167.215 10.045Z" fill="#74D2E8"/>
<path d="M195.528 31.6H207.112L209.672 35.44V40.624L207.112 43.216H198.088V54H195.528V31.6ZM198.12 33.904V42.448L200.712 40.944H206.12L207.112 39.92V35.792L205.864 33.904H198.12ZM214.684 31.6H225.436L228.892 36.624V39.824L225.724 43.056L228.892 47.632V54H226.3V47.92L223.068 43.216H219.772L217.244 41.648V54H214.684V31.6ZM217.244 33.904V40.88H224.668L226.3 39.248V36.976L224.188 33.904H217.244ZM236.463 31.6H248.047V33.904H237.423L236.431 34.96V40.88H243.855V43.216H236.431V49.84L237.679 51.696H248.047V54H236.431L233.871 50.16V34.256L236.463 31.6ZM255.651 31.6H264.675L266.371 34.224L264.739 35.824L263.427 33.904H256.611L255.651 34.928V39.056L256.931 40.912H264.963L267.235 44.304V51.664L264.995 54H254.499L253.091 52.016L254.691 50.32L255.683 51.696H263.907L264.675 51.024V44.592L263.715 43.216H255.651L253.091 39.408V34.256L255.651 31.6ZM274.838 31.6H286.422V33.904H275.798L274.806 34.96V40.88H282.23V43.216H274.806V49.84L276.054 51.696H286.422V54H274.806L272.246 50.16V34.256L274.838 31.6ZM303.05 31.6H305.642V54H303.05V45.456L295.274 33.904H294.026V54H291.466V31.6H296.49L303.05 41.296V31.6ZM309.373 31.6H326.077V33.904H316.541L319.037 35.44V54H316.445V35.76L315.229 33.904H309.373V31.6ZM332.401 31.6H341.425L343.121 34.224L341.489 35.824L340.177 33.904H333.361L332.401 34.928V39.056L333.681 40.912H341.713L343.985 44.304V51.664L341.745 54H331.249L329.841 52.016L331.441 50.32L332.433 51.696H340.657L341.425 51.024V44.592L340.465 43.216H332.401L329.841 39.408V34.256L332.401 31.6Z" fill="#74D2E8"/>
</g>
</g>
<defs>
<clipPath id="clip0_2002_48">
<rect width="347" height="80" fill="white"/>
</clipPath>
<clipPath id="clip1_2002_48">
<rect width="383" height="70" fill="white" transform="translate(0 6)"/>
</clipPath>
</defs>
</svg>
